<?xml version="1.0" encoding="utf-8"?>
<svg version="1.1" id="Layer_1" xmlns="http://www.w3.org/2000/svg" xmlns:xlink="http://www.w3.org/1999/xlink" x="0px" y="0px"
	 viewBox="0 0 1495.13 1642.724" enable-background="new 0 0 1495.13 1642.724" xml:space="preserve">
<g>
	<path fill="#121228" stroke="#121228" d="M389.749,23.198c20.777-2.006,41.67-2.473,62.467-0.876
		c-14.215,1.752-27.942,6.075-40.852,12.248c-20.543,8.198-39.801,19.219-58.28,31.311c-28.838,19.862-56.041,42.527-78.103,69.866
		c-37.075,43.501-63.284,96.095-76.019,151.785c-21.887,94.089-8.977,196.201,37.153,281.236
		c31.856,59.663,82.27,109.842,143.704,138.661c24.652,11.391,50.842,19.277,77.635,23.6c8.646,1.227,17.33,2.317,25.839,4.401
		c-23.542,10.398-49.888,10.534-74.909,14.838c4.712,2.765,9.405,5.608,14.293,8.12c-13.903-3.875-27.514-10.067-42.332-8.237
		c-46.792-1.597-93.135-13.436-134.689-35.128c-48.953-26.813-90.195-66.926-119.208-114.535
		c-9.989-15.928-18.245-32.83-25.976-49.926c-17.369-42.235-27.845-87.255-30.591-132.858
		c-4.264-71.579,10.145-144.639,44.591-207.787c14.117-25.08,31-48.544,50.082-70.08c19.589-20.971,41.145-40.132,64.823-56.372
		c11.158-7.653,22.841-14.507,34.602-21.186c19.219-9.775,39.042-18.46,59.604-24.924C345.099,30.441,367.336,25.885,389.749,23.198
		z"/>
	<path fill="#181733" stroke="#181733" d="M452.215,22.321c30.493,2.064,60.558,9.113,89.163,19.725
		c58.358,21.575,109.667,60.5,147.949,109.336c23.074,29.442,41.339,62.505,54.717,97.4c16.727,45.74,25.216,94.654,23.133,143.393
		c-1.207,39.684-10.126,78.804-23.97,115.918c8.509-7.575,15.967-16.22,23.367-24.866c28.449-33.726,51.523-73.838,56.82-118.293
		c9.074,0.896,18.129,2.142,27.261,2.512c1.227-2.551,1.207-5.433,1.48-8.178c1.422-30.104,7.127-60.422,19.959-87.858
		c9.21-19.336,22.218-37.445,40.093-49.634c20.913-14.487,48.369-15.987,72.514-10.223c12.657,4.81,25.917,11.605,32.421,24.126
		c4.926,8.84,3.933,20.387-2.454,28.235c-7.808,10.359-20.64,14.585-32.635,17.875c-1.344,8.49-3.369,16.843-5.53,25.158
		c7.068-2.999,14.37-6.348,22.237-5.978c11.411,0.389,22.627,5.822,30.143,14.39c3.836,4.264,4.089,10.203,4.712,15.597
		c-4.985,10.34-14.916,16.707-21.789,25.586c-6.504,7.886-11.742,16.688-16.785,25.547c13.845,1.305,27.728,2.453,41.553,4.07
		c-0.837,9.035-1.986,18.031-3.349,27.008c-12.384,69.71-44.552,134.805-87.858,190.457c-41.164,53.198-91.5,98.782-145.963,138.038
		c-2.921-2.298-5.861-4.556-8.801-6.815c-19.531,33.745-42.994,65.076-68.347,94.654c-5.919-15.325-6.835-31.856-9.755-47.843
		c-7.789-44.942-14.916-89.981-22.744-134.903c-2.083-12.871-3.661-25.859-6.893-38.516c-12.209,11.722-22.218,25.586-35.595,36.121
		c-24.944,23.113-52.789,42.858-82.367,59.565c9.483,22.958,20.913,45.058,31.117,67.705c8.84,19.706,18.985,38.866,26.755,59.02
		c-9.522-2.317-18.791-5.569-27.923-9.113c-57.384-21.049-114.671-42.391-172.172-63.148c-4.888-2.512-9.58-5.355-14.293-8.12
		c25.022-4.303,51.367-4.44,74.909-14.838c-8.509-2.084-17.194-3.174-25.839-4.401c-26.794-4.323-52.984-12.209-77.635-23.6
		C318.383,678.61,267.97,628.43,236.114,568.768c-46.129-85.035-59.039-187.147-37.153-281.236
		c12.735-55.69,38.944-108.284,76.019-151.785c22.062-27.339,49.264-50.004,78.103-69.866c18.479-12.092,37.737-23.113,58.28-31.311
		C424.273,28.397,438.001,24.074,452.215,22.321 M313.749,328.053c-25.684,1.714-51.815,13.046-67.958,33.609
		c-13.553,17.35-16.96,41.222-10.865,62.174c8.587,30.746,31.097,55.69,56.586,73.936c39.937,28.098,90,42.624,138.758,37.075
		c20.952-0.389,40.814-8.217,61.766-8.704c27.456-0.74,55.69-0.565,81.958,8.47c13.28,4.187,27.436,5.335,41.261,3.836
		c13.299-0.156,26.326-3.817,38.886-7.964c36.744-13.007,70.139-37.425,90.896-70.723c11.859-19.608,19.531-43.676,13.533-66.517
		c-4.303-17.798-17.875-32.46-34.446-39.801c-18.498-8.237-39.723-10.203-59.487-6.095c-29.442,2.59-56.781,16.396-80.615,33.258
		c-9.016,6.212-19.531,9.502-29.383,14.059c-8.373,0.857-16.707,2.337-25.138,2.609c-19.92-0.292-39.606-6.29-56.586-16.61
		c-9.288-5.394-17.058-12.93-25.995-18.81c-31.35-21.108-68.425-33.823-106.201-35.712
		C331.702,325.97,322.531,325.872,313.749,328.053z"/>
	<path fill="#F7DCA6" stroke="#F7DCA6" d="M313.749,328.053c8.782-2.181,17.953-2.084,26.969-1.908
		c37.776,1.889,74.851,14.604,106.201,35.712c8.938,5.881,16.707,13.416,25.995,18.81c16.98,10.32,36.666,16.318,56.586,16.61
		c8.431-0.273,16.765-1.753,25.138-2.609c9.502-0.506,19.005-2.142,27.728-6.056c14.682-5.822,26.677-16.434,40.521-23.775
		c13.202-7.438,27.689-12.053,41.748-17.486c19.764-4.109,40.989-2.142,59.487,6.095c16.571,7.341,30.143,22.004,34.446,39.801
		c5.997,22.841-1.675,46.908-13.533,66.517c-20.757,33.297-54.152,57.715-90.896,70.723c-12.56,4.148-25.586,7.808-38.886,7.964
		c-18.265-1.032-34.991-9.424-53.101-11.274c-23.25-2.784-46.811-3.077-70.119-1.032c-20.952,0.487-40.814,8.315-61.766,8.704
		c-45.351,1.48-90.604-14.254-126.958-41.047c-24.769-18.713-46.597-44.124-53.568-75.065c-4.946-20.952-0.409-44.26,13.806-60.714
		C276.226,342.443,295.348,334.615,313.749,328.053 M324.77,360.942c-3.544,7.399-5.511,18.129,1.48,24.184
		c7.984,6.835,18.771,8.49,28.702,10.593c12.871,2.356,25.703,4.985,38.691,6.601c-3.018,6.27-5.958,13.377-3.408,20.348
		c7.068,23.016,41.748,30.746,57.696,12.618c5.997-6.406,5.764-15.695,3.739-23.659c5.997,0.682,12.521,3.602,18.343,0.896
		c5.277-2.259,3.33-10.359-1.85-11.469c-42.274-14.585-84.236-30.123-126.277-45.389C335.928,352.9,327.652,354.613,324.77,360.942
		 M700.621,386.314c-35.459,12.17-71.054,23.931-106.727,35.361c-4.031,0.779-5.978,5.296-3.797,8.782
		c2.882,3.213,7.477,2.2,11.255,1.928c13.358-1.675,26.716-3.427,40.054-5.316c-0.935,6.017-1.129,12.754,3.018,17.72
		c12.248,16.064,40.891,14,51.036-3.369c4.089-6.913,2.317-15.363-1.616-21.926c10.126-2.064,23.328-3.349,28.196-13.981
		c1.344-7.068-0.058-16.045-6.426-20.368C710.786,382.38,705.372,384.795,700.621,386.314z"/>
	<path fill="#EAB24E" stroke="#EAB24E" d="M245.791,361.662c16.142-20.563,42.274-31.895,67.958-33.609
		c-18.401,6.562-37.523,14.39-50.199,29.968c-14.215,16.454-18.752,39.762-13.806,60.714c6.971,30.941,28.799,56.352,53.568,75.065
		c36.354,26.794,81.608,42.527,126.958,41.047c-48.758,5.55-98.821-8.977-138.758-37.075
		c-25.489-18.245-47.999-43.189-56.586-73.936C228.831,402.885,232.239,379.012,245.791,361.662z"/>
	<path fill="#EBB24D" stroke="#EBB24D" d="M584.022,380.608c23.834-16.863,51.173-30.669,80.615-33.258
		c-14.059,5.433-28.546,10.048-41.748,17.486c-13.845,7.341-25.839,17.953-40.521,23.775c-8.723,3.914-18.226,5.55-27.728,6.056
		C564.492,390.111,575.006,386.82,584.022,380.608z"/>
	<path fill="#181733" stroke="#181733" d="M324.77,360.942c2.882-6.328,11.158-8.042,17.116-5.277
		c42.04,15.266,84.003,30.805,126.277,45.389c5.18,1.11,7.127,9.21,1.85,11.469c-5.822,2.707-12.345-0.214-18.343-0.896
		c2.025,7.964,2.259,17.252-3.739,23.659c-15.948,18.129-50.628,10.398-57.696-12.618c-2.551-6.971,0.389-14.078,3.408-20.348
		c-12.988-1.616-25.82-4.245-38.691-6.601c-9.931-2.103-20.718-3.758-28.702-10.593C319.26,379.07,321.226,368.341,324.77,360.942z"
		/>
	<path fill="#181733" stroke="#181733" d="M700.621,386.314c4.751-1.519,10.164-3.933,14.994-1.168
		c6.367,4.323,7.769,13.299,6.426,20.368c-4.868,10.632-18.07,11.917-28.196,13.981c3.933,6.562,5.705,15.013,1.616,21.926
		c-10.145,17.369-38.788,19.433-51.036,3.369c-4.148-4.965-3.953-11.703-3.018-17.72c-13.338,1.889-26.696,3.641-40.054,5.316
		c-3.778,0.273-8.373,1.285-11.255-1.928c-2.181-3.486-0.234-8.003,3.797-8.782C629.567,410.245,665.162,398.484,700.621,386.314z"
		/>
	<path fill="#0A0A23" stroke="#0A0A23" d="M1431.312,390.442c7.419-2.882,14.857-7.127,23.074-6.523
		c13.027,0.915,23.6,14.39,20.855,27.261c-2.668,10.865-8.003,20.816-11.508,31.409c-20.446,51.134-40.093,102.579-60.364,153.771
		c-3.953,11.43-16.766,16.824-28.137,14.293c-4.381-11.566-9.016-23.036-13.046-34.738c13.728-37.698,27.67-75.532,36.16-114.827
		c4.245-18.284,3.252-37.64-3.388-55.242C1406.816,400.139,1419.22,395.641,1431.312,390.442z"/>
	<path fill="#181733" stroke="#181733" d="M1262.372,421.325c12.423-5.647,24.924-11.138,37.756-15.831
		c4.576,12.345,9.055,24.73,13.436,37.153c16.396,44.357,32.46,88.832,48.622,133.267c4.031,11.703,8.665,23.172,13.046,34.738
		c1.597,4.148,3.193,8.295,4.771,12.462c-57.677,24.009-111.069,57.326-161.619,93.817
		c-107.603,78.687-200.524,177.04-275.005,287.467c-21.322,30.571-40.872,62.369-58.884,94.985
		c-33.667,59.039-62.35,120.922-86.651,184.381c-17.35,43.91-32.265,88.812-45.097,134.26
		c-15.48,51.679-27.105,104.429-37.873,157.257c-7.088-1.344-14.176-2.765-21.302-3.836c-2.337-0.467-4.654-0.935-6.952-1.421
		c-53.879-10.651-107.856-20.874-161.833-31.136c-12.501-2.473-25.061-4.79-37.542-7.399c2.415-12.131,5.219-24.204,6.952-36.432
		c8.47-35.439,16.181-71.054,25.82-106.181c4.089-15.967,8.957-31.701,13.124-47.629c12.482-41.261,26.404-82.056,40.833-122.655
		c18.129-46.908,37.581-93.33,59.117-138.778c-18.031-8.334-30.415-24.204-44.085-37.932
		c38.711-27.475,75.863-57.229,110.056-90.195c2.979-0.039,5.959-0.175,8.938-0.389c21.205,31.311,43.695,61.746,65.426,92.726
		c15.325,21.244,30.026,42.955,45.76,63.888c17.428-12.579,35.186-24.71,52.341-37.678c-45.253-44.63-90.234-89.552-135.954-133.715
		c0.759-0.896,2.298-2.707,3.057-3.622c49.712,39.217,97.711,80.595,147.131,120.202c13.962-16.376,27.242-33.317,41.106-49.771
		c-37.503-21.634-75.357-42.664-113.036-64.005c-21.4-11.761-42.274-24.515-64.083-35.498c-0.039-1.305-0.136-3.933-0.175-5.257
		c22.315-25.684,42.741-53.198,59.293-82.971c8.938-15.558,14.156-32.849,22.958-48.466c9.522-13.183,20.679-25.061,31.214-37.406
		c29.442-33.434,60.5-65.446,92.979-95.939C1047.166,548.789,1149.473,474.698,1262.372,421.325z"/>
	<path fill="#FFF8F8" stroke="#FFF8F8" d="M1326.397,433.514c22.958-8.938,45.467-19.024,68.561-27.67
		c6.64,17.603,7.633,36.958,3.388,55.242c-8.49,39.295-22.432,77.129-36.16,114.827c-16.162-44.435-32.226-88.91-48.622-133.267
		C1315.453,437.078,1321.606,435.676,1326.397,433.514z"/>
	<path fill="#F2B84D" stroke="#F2B84D" d="M492.036,526.143c23.308-2.045,46.869-1.752,70.119,1.032
		c18.109,1.85,34.836,10.242,53.101,11.274c-13.825,1.499-27.981,0.351-41.261-3.836
		C547.726,525.578,519.491,525.403,492.036,526.143z"/>
	<path fill="#0A0A23" stroke="#0A0A23" d="M647.268,644.358c13.377-10.534,23.386-24.399,35.595-36.121
		c3.232,12.657,4.81,25.645,6.893,38.516c7.828,44.922,14.955,89.961,22.744,134.903c2.921,15.987,3.836,32.518,9.755,47.843
		c-6.27,7.458-12.637,14.838-19.316,21.945c-17.875-0.993-36.023,7.769-45.623,23.016c-6.582,9.658-8.315,21.595-7.945,33.064
		c-13.708,11.625-26.287,24.496-39.976,36.14c-112.841-26.171-225.857-51.64-338.717-77.635
		c-27.534-6.757-55.535-11.703-82.718-19.686c27.942-15.286,57.014-28.41,85.307-43.053c35.77-17.564,71.365-35.478,107.077-53.139
		c14.818-1.83,28.429,4.362,42.332,8.237c57.501,20.757,114.788,42.099,172.172,63.148c9.132,3.544,18.401,6.796,27.923,9.113
		c-7.769-20.154-17.914-39.314-26.755-59.02c-10.203-22.646-21.634-44.747-31.117-67.705
		C594.479,687.216,622.324,667.472,647.268,644.358z"/>
	<path stroke="#000000" d="M37.888,671.619c10.534-6.562,23.912-5.939,35.03-1.227c-15.402,20.563-22.86,47.609-19.161,73.079
		c-11.294-2.492-23.055-7.283-29.111-17.778c-6.328-9.094-5.588-20.563-4.381-31.019C23.984,685.639,29.008,676.448,37.888,671.619z
		"/>
	<path fill="#FFBC00" stroke="#FFBC00" d="M72.918,670.393c36.939,9.113,73.507,19.628,110.349,29.15
		c20.796,5.18,41.203,12.014,62.389,15.48c41.554,21.692,87.897,33.531,134.689,35.128c-35.712,17.661-71.307,35.576-107.077,53.139
		c-13.319-5.511-27.495-8.295-41.3-12.17c-59.409-15.87-118.76-31.993-178.209-47.648C50.058,718.002,57.515,690.955,72.918,670.393
		 M105.884,689.066c-9.872,6.932-13.241,19.725-15.656,30.941c-0.818,7.886-2.746,17.992,3.875,23.97
		c5.569,1.207,9.171-4.284,11.878-8.217c6.99-11.781,10.301-25.956,8.548-39.567C114.238,691.909,110.733,686.613,105.884,689.066
		 M135.754,701.548c-8.996,11.508-12.832,26.716-12.053,41.184c0.467,3.992,1.246,10.71,6.659,10.32
		c6.543-1.11,9.658-8.178,12.482-13.475c5.55-13.027,9.658-28.819,2.823-42.157C142.18,698.199,138.013,698.277,135.754,701.548
		 M179.684,708.577c-5.219,2.161-8.295,7.36-10.749,12.19c-5.082,10.904-8.023,23.172-6.504,35.245
		c0.448,4.089,3.33,9.464,8.256,7.672c5.666-2.862,8.665-8.879,11.255-14.351c4.712-11.06,7.341-23.62,4.732-35.517
		C186.109,710.758,183.013,707.253,179.684,708.577 M208.132,725.187c-6.932,11.586-10.593,25.47-9.366,38.964
		c0.117,4.634,4.187,11.489,9.483,8.1c7.283-5.102,10.593-14,13.222-22.14c2.901-10.865,5.296-23.737-1.83-33.512
		C214.986,718.177,210.488,720.689,208.132,725.187 M247.797,729.685c-10.593,6.971-13.962,20.699-16.22,32.46
		c-0.389,7.516-2.512,17.642,4.576,22.782c5.355,0.312,8.879-4.615,11.45-8.626c6.854-11.683,10.242-25.645,8.607-39.139
		C255.781,733.015,252.743,727.407,247.797,729.685 M272.332,746.548c-6.153,11.08-9.717,23.97-8.821,36.685
		c0.351,4.615,2.551,11.644,8.587,9.872c7.73-4.362,11.041-13.436,13.864-21.361c3.193-11.313,6.543-25.255-2.045-35.108
		C279.264,738.857,274.727,741.777,272.332,746.548z"/>
	<path fill="#FF0000" stroke="#FF0000" d="M105.884,689.066c4.849-2.453,8.354,2.843,8.646,7.127
		c1.752,13.611-1.558,27.787-8.548,39.567c-2.707,3.933-6.309,9.424-11.878,8.217c-6.621-5.978-4.693-16.084-3.875-23.97
		C92.643,708.792,96.012,695.998,105.884,689.066z"/>
	<path fill="#FF0000" stroke="#FF0000" d="M135.754,701.548c2.259-3.271,6.426-3.349,9.911-4.128
		c6.835,13.338,2.726,29.13-2.823,42.157c-2.823,5.296-5.939,12.365-12.482,13.475c-5.413,0.389-6.192-6.328-6.659-10.32
		C122.922,728.264,126.758,713.056,135.754,701.548z"/>
	<path fill="#FF0100" stroke="#FF0100" d="M179.684,708.577c3.33-1.324,6.426,2.181,6.99,5.238
		c2.609,11.897-0.019,24.457-4.732,35.517c-2.59,5.472-5.589,11.489-11.255,14.351c-4.926,1.791-7.808-3.583-8.256-7.672
		c-1.519-12.073,1.421-24.34,6.504-35.245C171.388,715.938,174.465,710.739,179.684,708.577z"/>
	<path fill="#FF0000" stroke="#FF0000" d="M208.132,725.187c2.356-4.498,6.854-7.01,11.508-8.587
		c7.127,9.775,4.732,22.646,1.83,33.512c-2.629,8.139-5.939,17.038-13.222,22.14c-5.296,3.388-9.366-3.466-9.483-8.1
		C197.539,750.657,201.2,736.773,208.132,725.187z"/>
	<path fill="#FF0000" stroke="#FF0000" d="M247.797,729.685c4.946-2.278,7.984,3.33,8.412,7.477
		c1.636,13.494-1.752,27.456-8.607,39.139c-2.57,4.011-6.095,8.938-11.45,8.626c-7.088-5.141-4.965-15.266-4.576-22.782
		C233.835,750.384,237.204,736.656,247.797,729.685z"/>
	<path fill="#FF0000" stroke="#FF0000" d="M790.602,734.845c2.94,2.259,5.881,4.518,8.801,6.815
		c10.788,8.509,20.932,17.856,32.421,25.47c-8.801,15.617-14.02,32.908-22.958,48.466c-16.551,29.773-36.978,57.287-59.293,82.971
		c-1.344-24.515-22.198-45.409-46.636-47.123c6.679-7.107,13.046-14.487,19.316-21.945
		C747.607,799.921,771.071,768.59,790.602,734.845z"/>
	<path fill="#FF0000" stroke="#FF0000" d="M272.332,746.548c2.395-4.771,6.932-7.691,11.586-9.911
		c8.587,9.853,5.238,23.795,2.045,35.108c-2.823,7.925-6.134,16.999-13.864,21.361c-6.036,1.772-8.237-5.258-8.587-9.872
		C262.615,770.518,266.179,757.628,272.332,746.548z"/>
	<path fill="#FFB600" stroke="#FFB600" d="M657.315,874.46c9.6-15.247,27.748-24.009,45.623-23.016
		c24.438,1.714,45.292,22.607,46.636,47.123c0.039,1.324,0.136,3.953,0.175,5.257c-0.993,10.476-4.634,20.738-11.119,29.072
		c-0.759,0.915-2.298,2.726-3.057,3.622c-7.536,7.458-17.291,12.345-27.573,14.779c-2.979,0.214-5.958,0.351-8.938,0.389
		c-24.769,0.351-46.616-19.862-49.693-44.163C649,896.055,650.734,884.119,657.315,874.46 M687.886,864.199
		c-18.791,5.296-31.097,26.209-26.813,45.234c3.622,20.64,25.937,35.342,46.363,30.493c20.212-3.661,34.583-25.177,30.435-45.273
		C734.658,872.143,709.345,856.955,687.886,864.199z"/>
	<path fill="#FFF8F8" stroke="#FFF8F8" d="M687.886,864.199c21.458-7.244,46.772,7.945,49.985,30.454
		c4.148,20.095-10.223,41.612-30.435,45.273c-20.426,4.849-42.741-9.853-46.363-30.493
		C656.789,890.408,669.096,869.495,687.886,864.199z"/>
	<path fill="#181733" stroke="#181733" d="M270.677,866.029c112.86,25.995,225.877,51.465,338.717,77.635
		c-21.575,19.141-43.851,37.523-67.062,54.658c-19.122-17.973-39.431-34.621-59.877-51.056
		c-20.952,23.289-40.599,47.785-58.319,73.644c-10.301,15.402-20.387,31.116-27.631,48.252c11.352,0.935,22.743,1.675,34.154,1.558
		c0.662,12.287,0.175,24.613,0.545,36.919c7.769-6.581,12.092-16.766,21.088-21.867c12.073-5.394,23.074,5.842,28.157,15.753
		c6.036,10.203,3.778,22.393,0.74,33.161c3.447-2.259,8.587-3.252,9.97-7.633c2.453-5.686,4.167-12.151,9.171-16.24
		c8.704-7.575,21.4-8.042,32.032-4.965c19.881,5.997,35.984,23.639,39.684,44.124c2.785,21.692-9.658,41.729-24.009,56.839
		c-31.467,30.065-75.007,42.391-117.125,48.057c0.156,10.281,0.156,20.563-0.117,30.844c-41.515-0.409-83.535-3.992-123.122-17.291
		c-32.518-10.671-63.148-28.468-86.573-53.665c-8.12-8.412-14.448-18.245-21.653-27.397c-13.708-24.963-23.23-52.477-24.983-81.043
		c-1.947-20.504,1.149-40.95,4.031-61.201C193.918,978.772,230.7,920.2,270.677,866.029z"/>
	<path fill="#ED1818" stroke="#ED1818" d="M749.749,903.824c21.809,10.982,42.683,23.737,64.083,35.498
		c37.679,21.341,75.532,42.371,113.036,64.005c-13.864,16.454-27.144,33.395-41.106,49.771
		c-49.42-39.606-97.419-80.985-147.131-120.202C745.115,924.562,748.756,914.3,749.749,903.824z"/>
	<path fill="#FF0000" stroke="#FF0000" d="M609.394,943.664c13.689-11.644,26.268-24.516,39.976-36.14
		c3.077,24.301,24.924,44.513,49.693,44.163c-34.193,32.966-71.346,62.72-110.056,90.195c-8.762,6.075-17.564,12.073-26.385,18.051
		c-16.98-13.007-32.733-27.475-48.817-41.553c9.483-6.737,19.238-13.066,28.527-20.056
		C565.543,981.187,587.819,962.805,609.394,943.664z"/>
	<path fill="#ED1818" stroke="#ED1818" d="M708.001,951.297c10.281-2.434,20.037-7.322,27.573-14.779
		c45.721,44.163,90.701,89.085,135.954,133.715c-17.155,12.968-34.914,25.1-52.341,37.678
		c-15.733-20.932-30.435-42.644-45.76-63.888C751.696,1013.043,729.206,982.609,708.001,951.297z"/>
	<path fill="#FFF8F8" stroke="#FFF8F8" d="M524.788,1538.888c53.977,10.262,107.953,20.485,161.833,31.136
		c0.273,4.44,0.623,8.918,1.11,13.377c-21.614,0.136-43.209-1.168-64.803-2.006c-24.457-1.577-49.07-3.077-73.059-8.315
		c-14.312-3.096-27.436-10.379-38.165-20.27c3.622-3.68,7.185-7.419,10.632-11.255
		C522.958,1540.894,524.184,1539.569,524.788,1538.888z"/>
	<path fill="#0A0A23" stroke="#0A0A23" d="M482.962,1582.116c9.639-9.717,19.18-19.531,28.741-29.305
		c10.729,9.892,23.853,17.174,38.165,20.27c23.99,5.238,48.602,6.737,73.059,8.315c21.595,0.837,43.189,2.142,64.803,2.006
		c0.779,7.906,2.298,15.85,1.499,23.834c-0.74,5.511-4.712,9.717-7.808,14.059c-66.108,0-132.216,0.214-198.323-0.117
		c-6.29-6.328-11.06-14.351-10.593-23.581C474.745,1591.677,478.483,1586.517,482.962,1582.116z"/>
</g>
</svg>
